%TF.GenerationSoftware,KiCad,Pcbnew,6.0.2+dfsg-1*%
%TF.CreationDate,2023-03-31T19:08:15-07:00*%
%TF.ProjectId,touchscreen_tester,746f7563-6873-4637-9265-656e5f746573,rev?*%
%TF.SameCoordinates,Original*%
%TF.FileFunction,Copper,L1,Top*%
%TF.FilePolarity,Positive*%
%FSLAX46Y46*%
G04 Gerber Fmt 4.6, Leading zero omitted, Abs format (unit mm)*
G04 Created by KiCad (PCBNEW 6.0.2+dfsg-1) date 2023-03-31 19:08:15*
%MOMM*%
%LPD*%
G01*
G04 APERTURE LIST*
G04 Aperture macros list*
%AMRoundRect*
0 Rectangle with rounded corners*
0 $1 Rounding radius*
0 $2 $3 $4 $5 $6 $7 $8 $9 X,Y pos of 4 corners*
0 Add a 4 corners polygon primitive as box body*
4,1,4,$2,$3,$4,$5,$6,$7,$8,$9,$2,$3,0*
0 Add four circle primitives for the rounded corners*
1,1,$1+$1,$2,$3*
1,1,$1+$1,$4,$5*
1,1,$1+$1,$6,$7*
1,1,$1+$1,$8,$9*
0 Add four rect primitives between the rounded corners*
20,1,$1+$1,$2,$3,$4,$5,0*
20,1,$1+$1,$4,$5,$6,$7,0*
20,1,$1+$1,$6,$7,$8,$9,0*
20,1,$1+$1,$8,$9,$2,$3,0*%
G04 Aperture macros list end*
%TA.AperFunction,SMDPad,CuDef*%
%ADD10C,1.143000*%
%TD*%
%TA.AperFunction,SMDPad,CuDef*%
%ADD11O,2.032000X1.016000*%
%TD*%
%TA.AperFunction,SMDPad,CuDef*%
%ADD12O,1.998980X2.748280*%
%TD*%
%TA.AperFunction,ComponentPad*%
%ADD13O,2.184400X2.184400*%
%TD*%
%TA.AperFunction,ComponentPad*%
%ADD14O,1.879600X1.879600*%
%TD*%
%TA.AperFunction,SMDPad,CuDef*%
%ADD15RoundRect,0.250000X0.350000X0.450000X-0.350000X0.450000X-0.350000X-0.450000X0.350000X-0.450000X0*%
%TD*%
%TA.AperFunction,SMDPad,CuDef*%
%ADD16RoundRect,0.250000X-0.350000X-0.450000X0.350000X-0.450000X0.350000X0.450000X-0.350000X0.450000X0*%
%TD*%
%TA.AperFunction,ViaPad*%
%ADD17C,0.685800*%
%TD*%
%TA.AperFunction,Conductor*%
%ADD18C,0.381000*%
%TD*%
%TA.AperFunction,Conductor*%
%ADD19C,0.254000*%
%TD*%
G04 APERTURE END LIST*
D10*
%TO.P,U1,20,GND*%
%TO.N,unconnected-(U1-Pad20)*%
X154645877Y-91624393D03*
%TO.P,U1,19,RESET*%
%TO.N,unconnected-(U1-Pad19)*%
X154645877Y-89084393D03*
%TO.P,U1,18,PA30_SWCLK*%
%TO.N,unconnected-(U1-Pad18)*%
X157185877Y-91624393D03*
%TO.P,U1,17,PA31_SWDIO*%
%TO.N,unconnected-(U1-Pad17)*%
X157185877Y-89084393D03*
D11*
%TO.P,U1,16,GND*%
%TO.N,unconnected-(U1-Pad16)*%
X140181690Y-91635590D03*
%TO.P,U1,15,5V*%
%TO.N,unconnected-(U1-Pad15)*%
X140181690Y-89085590D03*
D12*
%TO.P,U1,14,5V*%
%TO.N,+5V*%
X156499510Y-98383270D03*
%TO.P,U1,13,GND*%
%TO.N,GND*%
X153959510Y-98383270D03*
%TO.P,U1,12,3V3*%
%TO.N,unconnected-(U1-Pad12)*%
X151419510Y-98383270D03*
%TO.P,U1,11,PA6_A10_D10_MOSI*%
%TO.N,/MOSI*%
X148879510Y-98383270D03*
%TO.P,U1,10,PA5_A9_D9_MISO*%
%TO.N,/MISO*%
X146339510Y-98383270D03*
%TO.P,U1,9,PA7_A8_D8_SCK*%
%TO.N,/SCK*%
X143799510Y-98383270D03*
%TO.P,U1,8,PB09_A7_D7_RX*%
%TO.N,unconnected-(U1-Pad8)*%
X141259510Y-98383270D03*
%TO.P,U1,7,PB08_A6_D6_TX*%
%TO.N,unconnected-(U1-Pad7)*%
X141259510Y-82218710D03*
%TO.P,U1,6,PA9_A5_D5_SCL*%
%TO.N,unconnected-(U1-Pad6)*%
X143799510Y-82218710D03*
%TO.P,U1,5,PA8_A4_D4_SDA*%
%TO.N,unconnected-(U1-Pad5)*%
X146339510Y-82218710D03*
%TO.P,U1,4,PA11_A3_D3*%
%TO.N,/TFTCS*%
X148879510Y-82218710D03*
%TO.P,U1,3,PA10_A2_D2*%
%TO.N,/RESET*%
X151419510Y-82218710D03*
%TO.P,U1,2,PA4_A1_D1*%
%TO.N,/DC*%
X153959510Y-82218710D03*
%TO.P,U1,1,PA02_A0_D0*%
%TO.N,/TOUCHCS*%
X156499510Y-82218710D03*
%TD*%
D13*
%TO.P,U2,P18*%
%TO.N,N/C*%
X143768860Y178920D03*
%TO.P,U2,P17*%
X136148860Y178920D03*
%TO.P,U2,P16*%
X141228860Y178920D03*
%TO.P,U2,P15*%
X138688860Y178920D03*
D14*
%TO.P,U2,P14,T_IRQ*%
%TO.N,unconnected-(U2-PadP14)*%
X156468860Y-73001020D03*
%TO.P,U2,P13,T_DO*%
%TO.N,/MISO*%
X153928860Y-73001020D03*
%TO.P,U2,P12,T_DIN*%
%TO.N,/MOSI*%
X151388860Y-73001020D03*
%TO.P,U2,P11,T_CS*%
%TO.N,/TOUCHCS*%
X148848860Y-73001020D03*
%TO.P,U2,P10,T_CLK*%
%TO.N,/SCK*%
X146308860Y-73001020D03*
%TO.P,U2,P9,SDO*%
%TO.N,/MISO*%
X143768860Y-73001020D03*
%TO.P,U2,P8,LED*%
%TO.N,/LED*%
X141228860Y-73001020D03*
%TO.P,U2,P7,SCK*%
%TO.N,/SCK*%
X138688860Y-73001020D03*
%TO.P,U2,P6,SDI*%
%TO.N,/MOSI*%
X136148860Y-73001020D03*
%TO.P,U2,P5,DC*%
%TO.N,/DC*%
X133608860Y-73001020D03*
%TO.P,U2,P4,RESET*%
%TO.N,/RESET*%
X131068860Y-73001020D03*
%TO.P,U2,P3,CS*%
%TO.N,/TFTCS*%
X128528860Y-73001020D03*
%TO.P,U2,P2,GND*%
%TO.N,GND*%
X125988860Y-73001020D03*
%TO.P,U2,P1,VCC*%
%TO.N,+5V*%
X123448860Y-73001020D03*
%TD*%
D15*
%TO.P,R2,1*%
%TO.N,/LED*%
X127800000Y-82900000D03*
%TO.P,R2,2*%
%TO.N,+5V*%
X125800000Y-82900000D03*
%TD*%
D16*
%TO.P,R1,1*%
%TO.N,+5V*%
X125800000Y-84900000D03*
%TO.P,R1,2*%
%TO.N,/LED*%
X127800000Y-84900000D03*
%TD*%
D17*
%TO.N,GND*%
X147828000Y-101727000D03*
X151126890Y-101215890D03*
X149352000Y-101219000D03*
X122174000Y-77597000D03*
X134874000Y-75311000D03*
X144018000Y-78613000D03*
X147828000Y-78105000D03*
X152654000Y-77343000D03*
X156718000Y-75819000D03*
X156972000Y-78867000D03*
X156464000Y-102743000D03*
X122936000Y-88265000D03*
X130302000Y-103251000D03*
X122174000Y-103251000D03*
X125730000Y-79629000D03*
X132334000Y-85979000D03*
X127762000Y-86995000D03*
X128016000Y-95123000D03*
X131572000Y-99187000D03*
X129794000Y-93853000D03*
%TO.N,/MOSI*%
X147900000Y-75500000D03*
%TO.N,/LED*%
X135600000Y-84200000D03*
%TO.N,/MOSI*%
X134000000Y-101800000D03*
%TO.N,/MISO*%
X136600000Y-101221800D03*
%TO.N,/SCK*%
X134800000Y-100500000D03*
%TD*%
D18*
%TO.N,GND*%
X151126890Y-101215890D02*
X153959510Y-98383270D01*
X125988860Y-73001020D02*
X125988860Y-77288860D01*
X125988860Y-77288860D02*
X131100000Y-82400000D01*
X131100000Y-82400000D02*
X136400000Y-82400000D01*
X136400000Y-82400000D02*
X137200000Y-83200000D01*
X137200000Y-83200000D02*
X137200000Y-94600000D01*
X133000000Y-102139000D02*
X133561000Y-102700000D01*
X149642780Y-102700000D02*
X151126890Y-101215890D01*
X137200000Y-94600000D02*
X133000000Y-98800000D01*
X133000000Y-98800000D02*
X133000000Y-102139000D01*
X133561000Y-102700000D02*
X149642780Y-102700000D01*
D19*
%TO.N,/MOSI*%
X144700000Y-75500000D02*
X147900000Y-75500000D01*
X136148860Y-73001020D02*
X138647840Y-75500000D01*
X138647840Y-75500000D02*
X144700000Y-75500000D01*
%TO.N,/SCK*%
X138688860Y-73001020D02*
X140487840Y-74800000D01*
X140487840Y-74800000D02*
X145300000Y-74800000D01*
X145300000Y-74800000D02*
X146308860Y-73791140D01*
X146308860Y-73791140D02*
X146308860Y-73001020D01*
D18*
%TO.N,+5V*%
X125800000Y-87200000D02*
X123448860Y-84848860D01*
X123448860Y-84848860D02*
X123448860Y-73001020D01*
D19*
%TO.N,/TFTCS*%
X148879510Y-82218710D02*
X147060800Y-80400000D01*
X147060800Y-80400000D02*
X130500000Y-80400000D01*
X130500000Y-80400000D02*
X128528860Y-78428860D01*
X128528860Y-78428860D02*
X128528860Y-73001020D01*
%TO.N,/RESET*%
X151419510Y-82218710D02*
X149100800Y-79900000D01*
X149100800Y-79900000D02*
X133300000Y-79900000D01*
X133300000Y-79900000D02*
X131068860Y-77668860D01*
X131068860Y-77668860D02*
X131068860Y-73001020D01*
%TO.N,/DC*%
X153959510Y-82218710D02*
X151140800Y-79400000D01*
X151140800Y-79400000D02*
X135400000Y-79400000D01*
X135400000Y-79400000D02*
X133608860Y-77608860D01*
X133608860Y-77608860D02*
X133608860Y-73001020D01*
%TO.N,/TOUCHCS*%
X156499510Y-82218710D02*
X153080800Y-78800000D01*
X150200000Y-78800000D02*
X148848860Y-77448860D01*
X153080800Y-78800000D02*
X150200000Y-78800000D01*
X148848860Y-77448860D02*
X148848860Y-73001020D01*
%TO.N,+5V*%
X125800000Y-82900000D02*
X125800000Y-84900000D01*
D18*
X125800000Y-87200000D02*
X125800000Y-84900000D01*
X151700000Y-103400000D02*
X132946338Y-103400000D01*
X132946338Y-103400000D02*
X125800000Y-96253662D01*
X156499510Y-98383270D02*
X156499510Y-98599510D01*
X156499510Y-98599510D02*
X156500000Y-98600000D01*
X156500000Y-98600000D02*
X151700000Y-103400000D01*
X125800000Y-96253662D02*
X125800000Y-87200000D01*
D19*
%TO.N,/LED*%
X127800000Y-84900000D02*
X127800000Y-82900000D01*
X135600000Y-84200000D02*
X128500000Y-84200000D01*
X128500000Y-84200000D02*
X127800000Y-84900000D01*
%TO.N,/MOSI*%
X148879510Y-98383270D02*
X145419169Y-101843611D01*
X145419169Y-101843611D02*
X134043611Y-101843611D01*
X134043611Y-101843611D02*
X134000000Y-101800000D01*
%TO.N,/MISO*%
X144878200Y-101221800D02*
X146339510Y-99760490D01*
X146339510Y-99760490D02*
X146339510Y-98383270D01*
X136600000Y-101221800D02*
X144878200Y-101221800D01*
%TO.N,/SCK*%
X143799510Y-98383270D02*
X143799510Y-99100490D01*
X143799510Y-99100490D02*
X142300000Y-100600000D01*
X134900000Y-100600000D02*
X134800000Y-100500000D01*
X142300000Y-100600000D02*
X134900000Y-100600000D01*
%TD*%
%TA.AperFunction,Conductor*%
%TO.N,GND*%
G36*
X158154898Y-98879664D02*
G01*
X158213517Y-98919718D01*
X158241174Y-98985106D01*
X158242000Y-98999509D01*
X158242000Y-104141000D01*
X158221998Y-104209121D01*
X158168342Y-104255614D01*
X158116000Y-104267000D01*
X152072427Y-104267000D01*
X152004306Y-104246998D01*
X151957813Y-104193342D01*
X151947709Y-104123068D01*
X151977203Y-104058488D01*
X152014055Y-104029337D01*
X152019118Y-104026690D01*
X152026222Y-104024006D01*
X152032475Y-104019709D01*
X152035619Y-104018065D01*
X152048372Y-104010967D01*
X152051478Y-104009130D01*
X152058433Y-104006077D01*
X152064460Y-104001452D01*
X152064464Y-104001450D01*
X152108402Y-103967735D01*
X152113720Y-103963871D01*
X152165652Y-103928179D01*
X152206519Y-103882311D01*
X152211499Y-103877036D01*
X155874972Y-100213563D01*
X155937284Y-100179537D01*
X156009219Y-100185026D01*
X156072357Y-100209262D01*
X156309894Y-100258886D01*
X156314943Y-100259115D01*
X156314949Y-100259116D01*
X156425568Y-100264139D01*
X156552309Y-100269894D01*
X156557329Y-100269313D01*
X156557333Y-100269313D01*
X156665188Y-100256834D01*
X156793366Y-100242003D01*
X156798240Y-100240624D01*
X156798244Y-100240623D01*
X157021994Y-100177308D01*
X157021996Y-100177307D01*
X157026863Y-100175930D01*
X157031438Y-100173796D01*
X157031445Y-100173794D01*
X157242211Y-100075512D01*
X157242215Y-100075510D01*
X157246793Y-100073375D01*
X157350676Y-100002776D01*
X157443309Y-99939823D01*
X157443313Y-99939820D01*
X157447496Y-99936977D01*
X157623811Y-99770245D01*
X157635333Y-99755175D01*
X157768127Y-99581488D01*
X157768130Y-99581484D01*
X157771200Y-99577468D01*
X157885872Y-99363606D01*
X157964876Y-99134162D01*
X157991839Y-98978063D01*
X158023144Y-98914340D01*
X158083930Y-98877659D01*
X158154898Y-98879664D01*
G37*
%TD.AperFunction*%
%TA.AperFunction,Conductor*%
G36*
X122555730Y-71648002D02*
G01*
X122602223Y-71701658D01*
X122612327Y-71771932D01*
X122582833Y-71836512D01*
X122563262Y-71854760D01*
X122484000Y-71914272D01*
X122319462Y-72086451D01*
X122316551Y-72090719D01*
X122316547Y-72090724D01*
X122223150Y-72227639D01*
X122185254Y-72283192D01*
X122084982Y-72499211D01*
X122021337Y-72728705D01*
X122020788Y-72733839D01*
X122020788Y-72733841D01*
X122015309Y-72785109D01*
X121996030Y-72965514D01*
X121996327Y-72970666D01*
X121996327Y-72970670D01*
X122002362Y-73075333D01*
X122009739Y-73203275D01*
X122010876Y-73208321D01*
X122010877Y-73208327D01*
X122043971Y-73355176D01*
X122062097Y-73435605D01*
X122064039Y-73440387D01*
X122064040Y-73440391D01*
X122149753Y-73651477D01*
X122151697Y-73656264D01*
X122276134Y-73859326D01*
X122432064Y-74039337D01*
X122615302Y-74191464D01*
X122619755Y-74194066D01*
X122619759Y-74194069D01*
X122687431Y-74233613D01*
X122736154Y-74285252D01*
X122749860Y-74342401D01*
X122749860Y-84820261D01*
X122749568Y-84828831D01*
X122746973Y-84866896D01*
X122745690Y-84885712D01*
X122746995Y-84893188D01*
X122746995Y-84893192D01*
X122756523Y-84947784D01*
X122757486Y-84954309D01*
X122765051Y-85016820D01*
X122767735Y-85023922D01*
X122768579Y-85027360D01*
X122772443Y-85041483D01*
X122773473Y-85044894D01*
X122774779Y-85052377D01*
X122777832Y-85059332D01*
X122800099Y-85110058D01*
X122802590Y-85116164D01*
X122824854Y-85175082D01*
X122829153Y-85181337D01*
X122830795Y-85184478D01*
X122837893Y-85197232D01*
X122839730Y-85200338D01*
X122842783Y-85207293D01*
X122847408Y-85213320D01*
X122847410Y-85213324D01*
X122881125Y-85257262D01*
X122884989Y-85262580D01*
X122920681Y-85314512D01*
X122926351Y-85319564D01*
X122926352Y-85319565D01*
X122966548Y-85355378D01*
X122971824Y-85360359D01*
X125064095Y-87452630D01*
X125098121Y-87514942D01*
X125101000Y-87541725D01*
X125101000Y-96225063D01*
X125100708Y-96233633D01*
X125096830Y-96290514D01*
X125098135Y-96297990D01*
X125098135Y-96297994D01*
X125107663Y-96352586D01*
X125108626Y-96359111D01*
X125112670Y-96392524D01*
X125116191Y-96421622D01*
X125118875Y-96428724D01*
X125119719Y-96432162D01*
X125123583Y-96446285D01*
X125124613Y-96449696D01*
X125125919Y-96457179D01*
X125128972Y-96464134D01*
X125151239Y-96514860D01*
X125153730Y-96520966D01*
X125162107Y-96543133D01*
X125175994Y-96579884D01*
X125180293Y-96586139D01*
X125181935Y-96589280D01*
X125189033Y-96602034D01*
X125190870Y-96605140D01*
X125193923Y-96612095D01*
X125198548Y-96618122D01*
X125198550Y-96618126D01*
X125232265Y-96662064D01*
X125236129Y-96667382D01*
X125271821Y-96719314D01*
X125277491Y-96724366D01*
X125277492Y-96724367D01*
X125317688Y-96760180D01*
X125322964Y-96765161D01*
X132431841Y-103874038D01*
X132437694Y-103880303D01*
X132475180Y-103923274D01*
X132526716Y-103959494D01*
X132532012Y-103963427D01*
X132575601Y-103997606D01*
X132575604Y-103997608D01*
X132581578Y-104002292D01*
X132588502Y-104005418D01*
X132591537Y-104007256D01*
X132604236Y-104014500D01*
X132607383Y-104016187D01*
X132613599Y-104020556D01*
X132621378Y-104023589D01*
X132621427Y-104023608D01*
X132621891Y-104023966D01*
X132627370Y-104026904D01*
X132626880Y-104027817D01*
X132677628Y-104066989D01*
X132701453Y-104133869D01*
X132685338Y-104203013D01*
X132634400Y-104252468D01*
X132575655Y-104267000D01*
X121284000Y-104267000D01*
X121215879Y-104246998D01*
X121169386Y-104193342D01*
X121158000Y-104141000D01*
X121158000Y-71754000D01*
X121178002Y-71685879D01*
X121231658Y-71639386D01*
X121284000Y-71628000D01*
X122487609Y-71628000D01*
X122555730Y-71648002D01*
G37*
%TD.AperFunction*%
%TA.AperFunction,Conductor*%
G36*
X152783867Y-99704008D02*
G01*
X152905569Y-99842052D01*
X152912821Y-99849055D01*
X153092456Y-99996609D01*
X153100734Y-100002363D01*
X153301655Y-100119302D01*
X153310750Y-100123659D01*
X153527778Y-100206969D01*
X153537450Y-100209815D01*
X153610606Y-100225098D01*
X153673197Y-100258607D01*
X153707735Y-100320636D01*
X153703255Y-100391491D01*
X153673935Y-100437530D01*
X151447370Y-102664095D01*
X151385058Y-102698121D01*
X151358275Y-102701000D01*
X145640486Y-102701000D01*
X145572365Y-102680998D01*
X145525872Y-102627342D01*
X145515768Y-102557068D01*
X145545262Y-102492488D01*
X145594104Y-102457847D01*
X145619726Y-102447703D01*
X145630954Y-102443859D01*
X145647634Y-102439013D01*
X145673562Y-102431480D01*
X145680389Y-102427442D01*
X145680392Y-102427441D01*
X145691075Y-102421123D01*
X145708833Y-102412423D01*
X145720384Y-102407850D01*
X145720390Y-102407846D01*
X145727757Y-102404930D01*
X145763660Y-102378845D01*
X145773579Y-102372330D01*
X145804937Y-102353785D01*
X145804941Y-102353782D01*
X145811767Y-102349745D01*
X145826151Y-102335361D01*
X145841185Y-102322520D01*
X145851242Y-102315213D01*
X145857656Y-102310553D01*
X145885947Y-102276355D01*
X145893936Y-102267576D01*
X148039248Y-100122264D01*
X148101560Y-100088238D01*
X148172375Y-100093303D01*
X148191716Y-100102456D01*
X148225809Y-100122299D01*
X148230535Y-100124113D01*
X148230539Y-100124115D01*
X148447628Y-100207447D01*
X148447631Y-100207448D01*
X148452357Y-100209262D01*
X148689894Y-100258886D01*
X148694943Y-100259115D01*
X148694949Y-100259116D01*
X148805568Y-100264139D01*
X148932309Y-100269894D01*
X148937329Y-100269313D01*
X148937333Y-100269313D01*
X149045188Y-100256834D01*
X149173366Y-100242003D01*
X149178240Y-100240624D01*
X149178244Y-100240623D01*
X149401994Y-100177308D01*
X149401996Y-100177307D01*
X149406863Y-100175930D01*
X149411438Y-100173796D01*
X149411445Y-100173794D01*
X149622211Y-100075512D01*
X149622215Y-100075510D01*
X149626793Y-100073375D01*
X149730676Y-100002776D01*
X149823309Y-99939823D01*
X149823313Y-99939820D01*
X149827496Y-99936977D01*
X150003811Y-99770245D01*
X150048949Y-99711207D01*
X150106211Y-99669241D01*
X150177075Y-99664896D01*
X150243557Y-99704413D01*
X150365216Y-99842409D01*
X150365219Y-99842412D01*
X150368564Y-99846206D01*
X150372472Y-99849416D01*
X150372473Y-99849417D01*
X150395960Y-99868709D01*
X150556080Y-100000233D01*
X150765809Y-100122299D01*
X150770535Y-100124113D01*
X150770539Y-100124115D01*
X150987628Y-100207447D01*
X150987631Y-100207448D01*
X150992357Y-100209262D01*
X151229894Y-100258886D01*
X151234943Y-100259115D01*
X151234949Y-100259116D01*
X151345568Y-100264139D01*
X151472309Y-100269894D01*
X151477329Y-100269313D01*
X151477333Y-100269313D01*
X151585188Y-100256834D01*
X151713366Y-100242003D01*
X151718240Y-100240624D01*
X151718244Y-100240623D01*
X151941994Y-100177308D01*
X151941996Y-100177307D01*
X151946863Y-100175930D01*
X151951438Y-100173796D01*
X151951445Y-100173794D01*
X152162211Y-100075512D01*
X152162215Y-100075510D01*
X152166793Y-100073375D01*
X152270676Y-100002776D01*
X152363309Y-99939823D01*
X152363313Y-99939820D01*
X152367496Y-99936977D01*
X152543811Y-99770245D01*
X152589257Y-99710804D01*
X152646521Y-99668836D01*
X152717385Y-99664491D01*
X152783867Y-99704008D01*
G37*
%TD.AperFunction*%
%TA.AperFunction,Conductor*%
G36*
X126184981Y-72767022D02*
G01*
X126231474Y-72820678D01*
X126242860Y-72873020D01*
X126242860Y-74410076D01*
X126246924Y-74423918D01*
X126260338Y-74425952D01*
X126285786Y-74422692D01*
X126295851Y-74420552D01*
X126513988Y-74355108D01*
X126523583Y-74351348D01*
X126728094Y-74251158D01*
X126736944Y-74245883D01*
X126922352Y-74113633D01*
X126930212Y-74106990D01*
X127091533Y-73946232D01*
X127098217Y-73938379D01*
X127153529Y-73861404D01*
X127209523Y-73817756D01*
X127280227Y-73811310D01*
X127343191Y-73844113D01*
X127355301Y-73857966D01*
X127356134Y-73859326D01*
X127512064Y-74039337D01*
X127695302Y-74191464D01*
X127699759Y-74194068D01*
X127699764Y-74194072D01*
X127830930Y-74270719D01*
X127879654Y-74322358D01*
X127893360Y-74379507D01*
X127893360Y-78349840D01*
X127892830Y-78361074D01*
X127891152Y-78368579D01*
X127892068Y-78397736D01*
X127893298Y-78436872D01*
X127893360Y-78440829D01*
X127893360Y-78468843D01*
X127893856Y-78472768D01*
X127893856Y-78472769D01*
X127893868Y-78472864D01*
X127894801Y-78484709D01*
X127896195Y-78529065D01*
X127898407Y-78536677D01*
X127901873Y-78548608D01*
X127905883Y-78567972D01*
X127908433Y-78588159D01*
X127911349Y-78595523D01*
X127911350Y-78595528D01*
X127924767Y-78629416D01*
X127928612Y-78640645D01*
X127940991Y-78683253D01*
X127945029Y-78690080D01*
X127945030Y-78690083D01*
X127951348Y-78700766D01*
X127960048Y-78718524D01*
X127964621Y-78730075D01*
X127964625Y-78730081D01*
X127967541Y-78737448D01*
X127972199Y-78743859D01*
X127972200Y-78743861D01*
X127993624Y-78773348D01*
X128000141Y-78783270D01*
X128018686Y-78814628D01*
X128018689Y-78814632D01*
X128022726Y-78821458D01*
X128037110Y-78835842D01*
X128049951Y-78850876D01*
X128061918Y-78867347D01*
X128068026Y-78872400D01*
X128096115Y-78895637D01*
X128104895Y-78903627D01*
X129994750Y-80793483D01*
X130002326Y-80801809D01*
X130006447Y-80808303D01*
X130012222Y-80813726D01*
X130056265Y-80855085D01*
X130059107Y-80857840D01*
X130078906Y-80877639D01*
X130082031Y-80880063D01*
X130082040Y-80880071D01*
X130082126Y-80880137D01*
X130091151Y-80887845D01*
X130123494Y-80918217D01*
X130130438Y-80922035D01*
X130130440Y-80922036D01*
X130141329Y-80928022D01*
X130157847Y-80938873D01*
X130173933Y-80951350D01*
X130214666Y-80968976D01*
X130225314Y-80974193D01*
X130264197Y-80995569D01*
X130271872Y-80997540D01*
X130271878Y-80997542D01*
X130283911Y-81000631D01*
X130302613Y-81007034D01*
X130321292Y-81015117D01*
X130355128Y-81020476D01*
X130365127Y-81022060D01*
X130376740Y-81024465D01*
X130419718Y-81035500D01*
X130440065Y-81035500D01*
X130459777Y-81037051D01*
X130479879Y-81040235D01*
X130487771Y-81039489D01*
X130524056Y-81036059D01*
X130535914Y-81035500D01*
X139771398Y-81035500D01*
X139839519Y-81055502D01*
X139886012Y-81109158D01*
X139896116Y-81179432D01*
X139882443Y-81221039D01*
X139873148Y-81238374D01*
X139794144Y-81467818D01*
X139752840Y-81706942D01*
X139751520Y-81736013D01*
X139751520Y-82654337D01*
X139751722Y-82656845D01*
X139751722Y-82656850D01*
X139764326Y-82813503D01*
X139766075Y-82835244D01*
X139767280Y-82840152D01*
X139767281Y-82840155D01*
X139799077Y-82969602D01*
X139823959Y-83070904D01*
X139825934Y-83075556D01*
X139825937Y-83075566D01*
X139851916Y-83136767D01*
X139860122Y-83207288D01*
X139828898Y-83271050D01*
X139768158Y-83307809D01*
X139735933Y-83312000D01*
X138311702Y-83312000D01*
X138310932Y-83311998D01*
X138310078Y-83311993D01*
X138233348Y-83311524D01*
X138224719Y-83313990D01*
X138224714Y-83313991D01*
X138204952Y-83319639D01*
X138188191Y-83323217D01*
X138167848Y-83326130D01*
X138167838Y-83326133D01*
X138158955Y-83327405D01*
X138135605Y-83338021D01*
X138118093Y-83344464D01*
X138105200Y-83348149D01*
X138093435Y-83351512D01*
X138068452Y-83367274D01*
X138053386Y-83375404D01*
X138026490Y-83387633D01*
X138007061Y-83404374D01*
X137992053Y-83415479D01*
X137970369Y-83429160D01*
X137964427Y-83435888D01*
X137950819Y-83451296D01*
X137938627Y-83463340D01*
X137916253Y-83482619D01*
X137911374Y-83490147D01*
X137911371Y-83490150D01*
X137902304Y-83504139D01*
X137891014Y-83519013D01*
X137874044Y-83538228D01*
X137861490Y-83564966D01*
X137853176Y-83579935D01*
X137837107Y-83604727D01*
X137834535Y-83613327D01*
X137829761Y-83629290D01*
X137823099Y-83646736D01*
X137812201Y-83669948D01*
X137810820Y-83678821D01*
X137807658Y-83699128D01*
X137803874Y-83715849D01*
X137797986Y-83735536D01*
X137797985Y-83735539D01*
X137795413Y-83744141D01*
X137795358Y-83753116D01*
X137795358Y-83753117D01*
X137795203Y-83778546D01*
X137795170Y-83779328D01*
X137795000Y-83780423D01*
X137795000Y-83811298D01*
X137794998Y-83812068D01*
X137794524Y-83889652D01*
X137794908Y-83890996D01*
X137795000Y-83892341D01*
X137795000Y-96892298D01*
X137794998Y-96893068D01*
X137794524Y-96970652D01*
X137796990Y-96979281D01*
X137796991Y-96979286D01*
X137802639Y-96999048D01*
X137806217Y-97015809D01*
X137809130Y-97036152D01*
X137809133Y-97036162D01*
X137810405Y-97045045D01*
X137821021Y-97068395D01*
X137827464Y-97085907D01*
X137834512Y-97110565D01*
X137850274Y-97135548D01*
X137858404Y-97150614D01*
X137870633Y-97177510D01*
X137887374Y-97196939D01*
X137898479Y-97211947D01*
X137912160Y-97233631D01*
X137918888Y-97239573D01*
X137934296Y-97253181D01*
X137946340Y-97265373D01*
X137965619Y-97287747D01*
X137973147Y-97292626D01*
X137973150Y-97292629D01*
X137987139Y-97301696D01*
X138002013Y-97312986D01*
X138021228Y-97329956D01*
X138029354Y-97333771D01*
X138029355Y-97333772D01*
X138035021Y-97336432D01*
X138047966Y-97342510D01*
X138062935Y-97350824D01*
X138087727Y-97366893D01*
X138096327Y-97369465D01*
X138112290Y-97374239D01*
X138129736Y-97380901D01*
X138152948Y-97391799D01*
X138182130Y-97396343D01*
X138198849Y-97400126D01*
X138218536Y-97406014D01*
X138218539Y-97406015D01*
X138227141Y-97408587D01*
X138236116Y-97408642D01*
X138236117Y-97408642D01*
X138242810Y-97408683D01*
X138261556Y-97408797D01*
X138262328Y-97408830D01*
X138263423Y-97409000D01*
X138294298Y-97409000D01*
X138295068Y-97409002D01*
X138368716Y-97409452D01*
X138368717Y-97409452D01*
X138372652Y-97409476D01*
X138373996Y-97409092D01*
X138375341Y-97409000D01*
X139694414Y-97409000D01*
X139762535Y-97429002D01*
X139809028Y-97482658D01*
X139819132Y-97552932D01*
X139813552Y-97576013D01*
X139794144Y-97632378D01*
X139752840Y-97871502D01*
X139751520Y-97900573D01*
X139751520Y-98818897D01*
X139751722Y-98821405D01*
X139751722Y-98821410D01*
X139764326Y-98978063D01*
X139766075Y-98999804D01*
X139767280Y-99004712D01*
X139767281Y-99004715D01*
X139799077Y-99134162D01*
X139823959Y-99235464D01*
X139918776Y-99458839D01*
X139921474Y-99463123D01*
X140039140Y-99649972D01*
X140048087Y-99664180D01*
X140089192Y-99710804D01*
X140128310Y-99755175D01*
X140158355Y-99819500D01*
X140148854Y-99889858D01*
X140102822Y-99943910D01*
X140033796Y-99964500D01*
X135519604Y-99964500D01*
X135451483Y-99944498D01*
X135425967Y-99922810D01*
X135396298Y-99889858D01*
X135372836Y-99863801D01*
X135363637Y-99857117D01*
X135233387Y-99762485D01*
X135233386Y-99762484D01*
X135228045Y-99758604D01*
X135222017Y-99755920D01*
X135222015Y-99755919D01*
X135070577Y-99688495D01*
X135070576Y-99688495D01*
X135064546Y-99685810D01*
X134964248Y-99664491D01*
X134895943Y-99649972D01*
X134895939Y-99649972D01*
X134889486Y-99648600D01*
X134710514Y-99648600D01*
X134704061Y-99649972D01*
X134704057Y-99649972D01*
X134635752Y-99664491D01*
X134535454Y-99685810D01*
X134529424Y-99688495D01*
X134529423Y-99688495D01*
X134377985Y-99755919D01*
X134377983Y-99755920D01*
X134371955Y-99758604D01*
X134366614Y-99762484D01*
X134366613Y-99762485D01*
X134236364Y-99857117D01*
X134227164Y-99863801D01*
X134222745Y-99868709D01*
X134222742Y-99868712D01*
X134135854Y-99965212D01*
X134107409Y-99996803D01*
X134074588Y-100053651D01*
X134034169Y-100123659D01*
X134017923Y-100151797D01*
X134015881Y-100158082D01*
X133971617Y-100294314D01*
X133962618Y-100322009D01*
X133943910Y-100500000D01*
X133962618Y-100677991D01*
X133964658Y-100684269D01*
X133964658Y-100684270D01*
X133998255Y-100787670D01*
X134000283Y-100858637D01*
X133963620Y-100919435D01*
X133904619Y-100949853D01*
X133735454Y-100985810D01*
X133729424Y-100988495D01*
X133729423Y-100988495D01*
X133577985Y-101055919D01*
X133577983Y-101055920D01*
X133571955Y-101058604D01*
X133427164Y-101163801D01*
X133307409Y-101296803D01*
X133217923Y-101451797D01*
X133162618Y-101622009D01*
X133143910Y-101800000D01*
X133162618Y-101977991D01*
X133217923Y-102148203D01*
X133307409Y-102303197D01*
X133311827Y-102308104D01*
X133311828Y-102308105D01*
X133419278Y-102427441D01*
X133427164Y-102436199D01*
X133437707Y-102443859D01*
X133477904Y-102473064D01*
X133521258Y-102529287D01*
X133527333Y-102600023D01*
X133494201Y-102662814D01*
X133432381Y-102697726D01*
X133403843Y-102701000D01*
X133288063Y-102701000D01*
X133219942Y-102680998D01*
X133198968Y-102664095D01*
X126535905Y-96001032D01*
X126501879Y-95938720D01*
X126499000Y-95911937D01*
X126499000Y-87228599D01*
X126499292Y-87220029D01*
X126502654Y-87170723D01*
X126502654Y-87170719D01*
X126503170Y-87163148D01*
X126501866Y-87155674D01*
X126501865Y-87155664D01*
X126500877Y-87150006D01*
X126499000Y-87128341D01*
X126499000Y-86096248D01*
X126519002Y-86028127D01*
X126558697Y-85989104D01*
X126618120Y-85952332D01*
X126624348Y-85948478D01*
X126710784Y-85861891D01*
X126773066Y-85827812D01*
X126843886Y-85832815D01*
X126888976Y-85861736D01*
X126976697Y-85949305D01*
X126982927Y-85953145D01*
X126982928Y-85953146D01*
X127120090Y-86037694D01*
X127127262Y-86042115D01*
X127207005Y-86068564D01*
X127288611Y-86095632D01*
X127288613Y-86095632D01*
X127295139Y-86097797D01*
X127301975Y-86098497D01*
X127301978Y-86098498D01*
X127345031Y-86102909D01*
X127399600Y-86108500D01*
X128200400Y-86108500D01*
X128203646Y-86108163D01*
X128203650Y-86108163D01*
X128299308Y-86098238D01*
X128299312Y-86098237D01*
X128306166Y-86097526D01*
X128312702Y-86095345D01*
X128312704Y-86095345D01*
X128444806Y-86051272D01*
X128473946Y-86041550D01*
X128624348Y-85948478D01*
X128749305Y-85823303D01*
X128842115Y-85672738D01*
X128897797Y-85504861D01*
X128908500Y-85400400D01*
X128908500Y-84961500D01*
X128928502Y-84893379D01*
X128982158Y-84846886D01*
X129034500Y-84835500D01*
X134985262Y-84835500D01*
X135053383Y-84855502D01*
X135059323Y-84859564D01*
X135147314Y-84923493D01*
X135171955Y-84941396D01*
X135177983Y-84944080D01*
X135177985Y-84944081D01*
X135324421Y-85009278D01*
X135335454Y-85014190D01*
X135422984Y-85032795D01*
X135504057Y-85050028D01*
X135504061Y-85050028D01*
X135510514Y-85051400D01*
X135689486Y-85051400D01*
X135695939Y-85050028D01*
X135695943Y-85050028D01*
X135777016Y-85032795D01*
X135864546Y-85014190D01*
X135875579Y-85009278D01*
X136022015Y-84944081D01*
X136022017Y-84944080D01*
X136028045Y-84941396D01*
X136033387Y-84937515D01*
X136167492Y-84840082D01*
X136167494Y-84840080D01*
X136172836Y-84836199D01*
X136292591Y-84703197D01*
X136382077Y-84548203D01*
X136437382Y-84377991D01*
X136445372Y-84301978D01*
X136455400Y-84206565D01*
X136456090Y-84200000D01*
X136454226Y-84182266D01*
X136438072Y-84028573D01*
X136438072Y-84028572D01*
X136437382Y-84022009D01*
X136416360Y-83957308D01*
X136394377Y-83889652D01*
X136382077Y-83851797D01*
X136292591Y-83696803D01*
X136172836Y-83563801D01*
X136102508Y-83512704D01*
X136033387Y-83462485D01*
X136033386Y-83462484D01*
X136028045Y-83458604D01*
X136022017Y-83455920D01*
X136022015Y-83455919D01*
X135870577Y-83388495D01*
X135870576Y-83388495D01*
X135864546Y-83385810D01*
X135777016Y-83367205D01*
X135695943Y-83349972D01*
X135695939Y-83349972D01*
X135689486Y-83348600D01*
X135510514Y-83348600D01*
X135504061Y-83349972D01*
X135504057Y-83349972D01*
X135422984Y-83367205D01*
X135335454Y-83385810D01*
X135329424Y-83388495D01*
X135329423Y-83388495D01*
X135177985Y-83455919D01*
X135177983Y-83455920D01*
X135171955Y-83458604D01*
X135166614Y-83462484D01*
X135166613Y-83462485D01*
X135059323Y-83540436D01*
X134992455Y-83564295D01*
X134985262Y-83564500D01*
X129031256Y-83564500D01*
X128963135Y-83544498D01*
X128916642Y-83490842D01*
X128905912Y-83425656D01*
X128907467Y-83410482D01*
X128908500Y-83400400D01*
X128908500Y-82399600D01*
X128897526Y-82293834D01*
X128841550Y-82126054D01*
X128748478Y-81975652D01*
X128623303Y-81850695D01*
X128513617Y-81783083D01*
X128478968Y-81761725D01*
X128478966Y-81761724D01*
X128472738Y-81757885D01*
X128312254Y-81704655D01*
X128311389Y-81704368D01*
X128311387Y-81704368D01*
X128304861Y-81702203D01*
X128298025Y-81701503D01*
X128298022Y-81701502D01*
X128254969Y-81697091D01*
X128200400Y-81691500D01*
X127399600Y-81691500D01*
X127396354Y-81691837D01*
X127396350Y-81691837D01*
X127300692Y-81701762D01*
X127300688Y-81701763D01*
X127293834Y-81702474D01*
X127287298Y-81704655D01*
X127287296Y-81704655D01*
X127189067Y-81737427D01*
X127126054Y-81758450D01*
X126975652Y-81851522D01*
X126970479Y-81856704D01*
X126889216Y-81938109D01*
X126826934Y-81972188D01*
X126756114Y-81967185D01*
X126711025Y-81938264D01*
X126628483Y-81855866D01*
X126623303Y-81850695D01*
X126513617Y-81783083D01*
X126478968Y-81761725D01*
X126478966Y-81761724D01*
X126472738Y-81757885D01*
X126312254Y-81704655D01*
X126311389Y-81704368D01*
X126311387Y-81704368D01*
X126304861Y-81702203D01*
X126298025Y-81701503D01*
X126298022Y-81701502D01*
X126254969Y-81697091D01*
X126200400Y-81691500D01*
X125399600Y-81691500D01*
X125396354Y-81691837D01*
X125396350Y-81691837D01*
X125300692Y-81701762D01*
X125300688Y-81701763D01*
X125293834Y-81702474D01*
X125287298Y-81704655D01*
X125287296Y-81704655D01*
X125189067Y-81737427D01*
X125126054Y-81758450D01*
X124975652Y-81851522D01*
X124850695Y-81976697D01*
X124757885Y-82127262D01*
X124702203Y-82295139D01*
X124691500Y-82399600D01*
X124691500Y-83400400D01*
X124691837Y-83403646D01*
X124691837Y-83403650D01*
X124700031Y-83482619D01*
X124702474Y-83506166D01*
X124704655Y-83512702D01*
X124704655Y-83512704D01*
X124748728Y-83644806D01*
X124758450Y-83673946D01*
X124851522Y-83824348D01*
X124851638Y-83824464D01*
X124877173Y-83887543D01*
X124864004Y-83957308D01*
X124853136Y-83974251D01*
X124850695Y-83976697D01*
X124757885Y-84127262D01*
X124702203Y-84295139D01*
X124691500Y-84399600D01*
X124691500Y-84798775D01*
X124671498Y-84866896D01*
X124617842Y-84913389D01*
X124547568Y-84923493D01*
X124482988Y-84893999D01*
X124476405Y-84887870D01*
X124184765Y-84596230D01*
X124150739Y-84533918D01*
X124147860Y-84507135D01*
X124147860Y-74346402D01*
X124167862Y-74278281D01*
X124200691Y-74243824D01*
X124386880Y-74111017D01*
X124555576Y-73942909D01*
X124558592Y-73938712D01*
X124558599Y-73938704D01*
X124614148Y-73861399D01*
X124670142Y-73817751D01*
X124740846Y-73811305D01*
X124803810Y-73844108D01*
X124818148Y-73860511D01*
X124819920Y-73862932D01*
X124969032Y-74035072D01*
X124976394Y-74042281D01*
X125151615Y-74187753D01*
X125160047Y-74193658D01*
X125356684Y-74308563D01*
X125365967Y-74313010D01*
X125578721Y-74394253D01*
X125588619Y-74397129D01*
X125717110Y-74423271D01*
X125731159Y-74422075D01*
X125734860Y-74411730D01*
X125734860Y-72873020D01*
X125754862Y-72804899D01*
X125808518Y-72758406D01*
X125860860Y-72747020D01*
X126116860Y-72747020D01*
X126184981Y-72767022D01*
G37*
%TD.AperFunction*%
%TA.AperFunction,Conductor*%
G36*
X158184121Y-71648002D02*
G01*
X158230614Y-71701658D01*
X158242000Y-71754000D01*
X158242000Y-81576394D01*
X158221998Y-81644515D01*
X158168342Y-81691008D01*
X158098068Y-81701112D01*
X158033488Y-81671618D01*
X157995104Y-81611892D01*
X157992970Y-81602486D01*
X157992945Y-81602176D01*
X157961170Y-81472810D01*
X157936268Y-81371430D01*
X157935061Y-81366516D01*
X157840244Y-81143141D01*
X157771217Y-81033529D01*
X157713628Y-80942079D01*
X157713626Y-80942076D01*
X157710933Y-80937800D01*
X157666892Y-80887845D01*
X157553804Y-80759571D01*
X157553801Y-80759568D01*
X157550456Y-80755774D01*
X157362940Y-80601747D01*
X157153211Y-80479681D01*
X157148485Y-80477867D01*
X157148481Y-80477865D01*
X156931392Y-80394533D01*
X156931389Y-80394532D01*
X156926663Y-80392718D01*
X156689126Y-80343094D01*
X156684077Y-80342865D01*
X156684071Y-80342864D01*
X156573452Y-80337841D01*
X156446711Y-80332086D01*
X156441691Y-80332667D01*
X156441687Y-80332667D01*
X156342625Y-80344129D01*
X156205654Y-80359977D01*
X156200780Y-80361356D01*
X156200776Y-80361357D01*
X155977026Y-80424672D01*
X155977024Y-80424673D01*
X155972157Y-80426050D01*
X155802116Y-80505341D01*
X155731927Y-80516002D01*
X155667114Y-80487022D01*
X155659773Y-80480241D01*
X154651938Y-79472405D01*
X153586050Y-78406517D01*
X153578474Y-78398191D01*
X153574353Y-78391697D01*
X153524534Y-78344914D01*
X153521693Y-78342160D01*
X153501894Y-78322361D01*
X153498769Y-78319937D01*
X153498760Y-78319929D01*
X153498674Y-78319863D01*
X153489649Y-78312155D01*
X153463085Y-78287210D01*
X153457306Y-78281783D01*
X153439469Y-78271977D01*
X153422953Y-78261127D01*
X153406867Y-78248650D01*
X153366134Y-78231024D01*
X153355486Y-78225807D01*
X153343858Y-78219415D01*
X153316603Y-78204431D01*
X153308928Y-78202460D01*
X153308922Y-78202458D01*
X153296889Y-78199369D01*
X153278187Y-78192966D01*
X153259508Y-78184883D01*
X153225672Y-78179524D01*
X153215673Y-78177940D01*
X153204060Y-78175535D01*
X153161082Y-78164500D01*
X153140735Y-78164500D01*
X153121024Y-78162949D01*
X153108750Y-78161005D01*
X153100921Y-78159765D01*
X153093029Y-78160511D01*
X153056744Y-78163941D01*
X153044886Y-78164500D01*
X150515423Y-78164500D01*
X150447302Y-78144498D01*
X150426328Y-78127595D01*
X149521265Y-77222532D01*
X149487239Y-77160220D01*
X149484360Y-77133437D01*
X149484360Y-74381114D01*
X149504362Y-74312993D01*
X149554926Y-74267964D01*
X149592993Y-74249315D01*
X149597196Y-74246317D01*
X149597201Y-74246314D01*
X149782676Y-74114016D01*
X149782678Y-74114014D01*
X149786880Y-74111017D01*
X149955576Y-73942909D01*
X150013839Y-73861827D01*
X150069832Y-73818180D01*
X150140536Y-73811734D01*
X150203500Y-73844536D01*
X150215442Y-73858196D01*
X150216134Y-73859326D01*
X150372064Y-74039337D01*
X150555302Y-74191464D01*
X150559754Y-74194066D01*
X150559759Y-74194069D01*
X150753359Y-74307200D01*
X150760925Y-74311621D01*
X150983412Y-74396580D01*
X150988478Y-74397611D01*
X150988479Y-74397611D01*
X151042816Y-74408666D01*
X151216788Y-74444061D01*
X151350981Y-74448982D01*
X151449620Y-74452599D01*
X151449624Y-74452599D01*
X151454784Y-74452788D01*
X151459904Y-74452132D01*
X151459906Y-74452132D01*
X151685883Y-74423184D01*
X151685884Y-74423184D01*
X151691011Y-74422527D01*
X151774060Y-74397611D01*
X151914176Y-74355574D01*
X151914177Y-74355573D01*
X151919122Y-74354090D01*
X152132993Y-74249315D01*
X152137196Y-74246317D01*
X152137201Y-74246314D01*
X152322676Y-74114016D01*
X152322678Y-74114014D01*
X152326880Y-74111017D01*
X152495576Y-73942909D01*
X152553839Y-73861827D01*
X152609832Y-73818180D01*
X152680536Y-73811734D01*
X152743500Y-73844536D01*
X152755442Y-73858196D01*
X152756134Y-73859326D01*
X152912064Y-74039337D01*
X153095302Y-74191464D01*
X153099754Y-74194066D01*
X153099759Y-74194069D01*
X153293359Y-74307200D01*
X153300925Y-74311621D01*
X153523412Y-74396580D01*
X153528478Y-74397611D01*
X153528479Y-74397611D01*
X153582816Y-74408666D01*
X153756788Y-74444061D01*
X153890981Y-74448982D01*
X153989620Y-74452599D01*
X153989624Y-74452599D01*
X153994784Y-74452788D01*
X153999904Y-74452132D01*
X153999906Y-74452132D01*
X154225883Y-74423184D01*
X154225884Y-74423184D01*
X154231011Y-74422527D01*
X154314060Y-74397611D01*
X154454176Y-74355574D01*
X154454177Y-74355573D01*
X154459122Y-74354090D01*
X154672993Y-74249315D01*
X154677196Y-74246317D01*
X154677201Y-74246314D01*
X154862676Y-74114016D01*
X154862678Y-74114014D01*
X154866880Y-74111017D01*
X155035576Y-73942909D01*
X155093839Y-73861827D01*
X155149832Y-73818180D01*
X155220536Y-73811734D01*
X155283500Y-73844536D01*
X155295442Y-73858196D01*
X155296134Y-73859326D01*
X155452064Y-74039337D01*
X155635302Y-74191464D01*
X155639754Y-74194066D01*
X155639759Y-74194069D01*
X155833359Y-74307200D01*
X155840925Y-74311621D01*
X156063412Y-74396580D01*
X156068478Y-74397611D01*
X156068479Y-74397611D01*
X156122816Y-74408666D01*
X156296788Y-74444061D01*
X156430981Y-74448982D01*
X156529620Y-74452599D01*
X156529624Y-74452599D01*
X156534784Y-74452788D01*
X156539904Y-74452132D01*
X156539906Y-74452132D01*
X156765883Y-74423184D01*
X156765884Y-74423184D01*
X156771011Y-74422527D01*
X156854060Y-74397611D01*
X156994176Y-74355574D01*
X156994177Y-74355573D01*
X156999122Y-74354090D01*
X157212993Y-74249315D01*
X157217196Y-74246317D01*
X157217201Y-74246314D01*
X157402676Y-74114016D01*
X157402678Y-74114014D01*
X157406880Y-74111017D01*
X157575576Y-73942909D01*
X157714550Y-73749506D01*
X157760634Y-73656264D01*
X157817777Y-73540644D01*
X157817778Y-73540642D01*
X157820071Y-73536002D01*
X157889303Y-73308131D01*
X157920389Y-73072012D01*
X157922124Y-73001020D01*
X157902610Y-72763664D01*
X157844591Y-72532683D01*
X157749627Y-72314279D01*
X157732554Y-72287887D01*
X157670225Y-72191542D01*
X157620266Y-72114318D01*
X157459984Y-71938170D01*
X157455933Y-71934971D01*
X157455929Y-71934967D01*
X157351990Y-71852882D01*
X157310927Y-71794965D01*
X157307695Y-71724042D01*
X157343320Y-71662631D01*
X157406491Y-71630228D01*
X157430082Y-71628000D01*
X158116000Y-71628000D01*
X158184121Y-71648002D01*
G37*
%TD.AperFunction*%
%TA.AperFunction,Conductor*%
G36*
X134963500Y-73844536D02*
G01*
X134975442Y-73858196D01*
X134976134Y-73859326D01*
X135132064Y-74039337D01*
X135315302Y-74191464D01*
X135319754Y-74194066D01*
X135319759Y-74194069D01*
X135513359Y-74307200D01*
X135520925Y-74311621D01*
X135743412Y-74396580D01*
X135748478Y-74397611D01*
X135748479Y-74397611D01*
X135802816Y-74408666D01*
X135976788Y-74444061D01*
X136110981Y-74448982D01*
X136209620Y-74452599D01*
X136209624Y-74452599D01*
X136214784Y-74452788D01*
X136219904Y-74452132D01*
X136219906Y-74452132D01*
X136292072Y-74442887D01*
X136451011Y-74422527D01*
X136455965Y-74421041D01*
X136455973Y-74421039D01*
X136548634Y-74393239D01*
X136619630Y-74392821D01*
X136673937Y-74424829D01*
X138142585Y-75893477D01*
X138150162Y-75901803D01*
X138154287Y-75908303D01*
X138160065Y-75913729D01*
X138160066Y-75913730D01*
X138204121Y-75955100D01*
X138206963Y-75957855D01*
X138226746Y-75977638D01*
X138229954Y-75980126D01*
X138238983Y-75987837D01*
X138271334Y-76018217D01*
X138278283Y-76022037D01*
X138289169Y-76028022D01*
X138305693Y-76038876D01*
X138321773Y-76051349D01*
X138329050Y-76054498D01*
X138362490Y-76068969D01*
X138373151Y-76074192D01*
X138405087Y-76091749D01*
X138405092Y-76091751D01*
X138412037Y-76095569D01*
X138419711Y-76097539D01*
X138419718Y-76097542D01*
X138431753Y-76100632D01*
X138450458Y-76107036D01*
X138461853Y-76111967D01*
X138469132Y-76115117D01*
X138496182Y-76119401D01*
X138512967Y-76122060D01*
X138524580Y-76124465D01*
X138567558Y-76135500D01*
X138587905Y-76135500D01*
X138607617Y-76137051D01*
X138627719Y-76140235D01*
X138635611Y-76139489D01*
X138671896Y-76136059D01*
X138683754Y-76135500D01*
X147285262Y-76135500D01*
X147353383Y-76155502D01*
X147359323Y-76159564D01*
X147471955Y-76241396D01*
X147477983Y-76244080D01*
X147477985Y-76244081D01*
X147629423Y-76311505D01*
X147635454Y-76314190D01*
X147722984Y-76332795D01*
X147804057Y-76350028D01*
X147804061Y-76350028D01*
X147810514Y-76351400D01*
X147989486Y-76351400D01*
X148005950Y-76347900D01*
X148061164Y-76336165D01*
X148131955Y-76341568D01*
X148188587Y-76384385D01*
X148213080Y-76451022D01*
X148213360Y-76459412D01*
X148213360Y-77369840D01*
X148212830Y-77381074D01*
X148211152Y-77388579D01*
X148211401Y-77396498D01*
X148213298Y-77456872D01*
X148213360Y-77460829D01*
X148213360Y-77488843D01*
X148213856Y-77492768D01*
X148213856Y-77492769D01*
X148213868Y-77492864D01*
X148214801Y-77504709D01*
X148216195Y-77549065D01*
X148218407Y-77556677D01*
X148221873Y-77568608D01*
X148225883Y-77587972D01*
X148228433Y-77608159D01*
X148231349Y-77615523D01*
X148231350Y-77615528D01*
X148244767Y-77649416D01*
X148248612Y-77660645D01*
X148260991Y-77703253D01*
X148265029Y-77710080D01*
X148265030Y-77710083D01*
X148271348Y-77720766D01*
X148280048Y-77738524D01*
X148284621Y-77750075D01*
X148284625Y-77750081D01*
X148287541Y-77757448D01*
X148292199Y-77763859D01*
X148292200Y-77763861D01*
X148313624Y-77793348D01*
X148320141Y-77803270D01*
X148338686Y-77834628D01*
X148338689Y-77834632D01*
X148342726Y-77841458D01*
X148357110Y-77855842D01*
X148369951Y-77870876D01*
X148381918Y-77887347D01*
X148395429Y-77898524D01*
X148416110Y-77915633D01*
X148424891Y-77923623D01*
X149050672Y-78549405D01*
X149084697Y-78611717D01*
X149079632Y-78682533D01*
X149037085Y-78739368D01*
X148970565Y-78764179D01*
X148961576Y-78764500D01*
X135715423Y-78764500D01*
X135647302Y-78744498D01*
X135626328Y-78727595D01*
X134281265Y-77382532D01*
X134247239Y-77320220D01*
X134244360Y-77293437D01*
X134244360Y-74381114D01*
X134264362Y-74312993D01*
X134314926Y-74267964D01*
X134352993Y-74249315D01*
X134357196Y-74246317D01*
X134357201Y-74246314D01*
X134542676Y-74114016D01*
X134542678Y-74114014D01*
X134546880Y-74111017D01*
X134715576Y-73942909D01*
X134773839Y-73861827D01*
X134829832Y-73818180D01*
X134900536Y-73811734D01*
X134963500Y-73844536D01*
G37*
%TD.AperFunction*%
%TD*%
M02*
