%TF.GenerationSoftware,KiCad,Pcbnew,6.0.2+dfsg-1*%
%TF.CreationDate,2023-03-31T19:08:15-07:00*%
%TF.ProjectId,touchscreen_tester,746f7563-6873-4637-9265-656e5f746573,rev?*%
%TF.SameCoordinates,Original*%
%TF.FileFunction,Copper,L2,Bot*%
%TF.FilePolarity,Positive*%
%FSLAX46Y46*%
G04 Gerber Fmt 4.6, Leading zero omitted, Abs format (unit mm)*
G04 Created by KiCad (PCBNEW 6.0.2+dfsg-1) date 2023-03-31 19:08:15*
%MOMM*%
%LPD*%
G01*
G04 APERTURE LIST*
%TA.AperFunction,ComponentPad*%
%ADD10O,2.184400X2.184400*%
%TD*%
%TA.AperFunction,ComponentPad*%
%ADD11O,1.879600X1.879600*%
%TD*%
%TA.AperFunction,ViaPad*%
%ADD12C,0.685800*%
%TD*%
%TA.AperFunction,Conductor*%
%ADD13C,0.254000*%
%TD*%
G04 APERTURE END LIST*
D10*
%TO.P,U2,P18*%
%TO.N,N/C*%
X143768860Y178920D03*
%TO.P,U2,P17*%
X136148860Y178920D03*
%TO.P,U2,P16*%
X141228860Y178920D03*
%TO.P,U2,P15*%
X138688860Y178920D03*
D11*
%TO.P,U2,P14,T_IRQ*%
%TO.N,unconnected-(U2-PadP14)*%
X156468860Y-73001020D03*
%TO.P,U2,P13,T_DO*%
%TO.N,/MISO*%
X153928860Y-73001020D03*
%TO.P,U2,P12,T_DIN*%
%TO.N,/MOSI*%
X151388860Y-73001020D03*
%TO.P,U2,P11,T_CS*%
%TO.N,/TOUCHCS*%
X148848860Y-73001020D03*
%TO.P,U2,P10,T_CLK*%
%TO.N,/SCK*%
X146308860Y-73001020D03*
%TO.P,U2,P9,SDO*%
%TO.N,/MISO*%
X143768860Y-73001020D03*
%TO.P,U2,P8,LED*%
%TO.N,/LED*%
X141228860Y-73001020D03*
%TO.P,U2,P7,SCK*%
%TO.N,/SCK*%
X138688860Y-73001020D03*
%TO.P,U2,P6,SDI*%
%TO.N,/MOSI*%
X136148860Y-73001020D03*
%TO.P,U2,P5,DC*%
%TO.N,/DC*%
X133608860Y-73001020D03*
%TO.P,U2,P4,RESET*%
%TO.N,/RESET*%
X131068860Y-73001020D03*
%TO.P,U2,P3,CS*%
%TO.N,/TFTCS*%
X128528860Y-73001020D03*
%TO.P,U2,P2,GND*%
%TO.N,GND*%
X125988860Y-73001020D03*
%TO.P,U2,P1,VCC*%
%TO.N,+5V*%
X123448860Y-73001020D03*
%TD*%
D12*
%TO.N,GND*%
X147828000Y-101727000D03*
X151126890Y-101215890D03*
X149352000Y-101219000D03*
X122174000Y-77597000D03*
X134874000Y-75311000D03*
X144018000Y-78613000D03*
X147828000Y-78105000D03*
X152654000Y-77343000D03*
X156718000Y-75819000D03*
X156972000Y-78867000D03*
X156464000Y-102743000D03*
X122936000Y-88265000D03*
X130302000Y-103251000D03*
X122174000Y-103251000D03*
X125730000Y-79629000D03*
X132334000Y-85979000D03*
X127762000Y-86995000D03*
X128016000Y-95123000D03*
X131572000Y-99187000D03*
X129794000Y-93853000D03*
%TO.N,/MOSI*%
X147900000Y-75500000D03*
%TO.N,/LED*%
X135600000Y-84200000D03*
%TO.N,/MOSI*%
X134000000Y-101800000D03*
%TO.N,/MISO*%
X136600000Y-101221800D03*
%TO.N,/SCK*%
X134800000Y-100500000D03*
%TD*%
D13*
%TO.N,/MISO*%
X153928860Y-73001020D02*
X150428860Y-76501020D01*
X150428860Y-76501020D02*
X143768860Y-76501020D01*
%TO.N,/MOSI*%
X147900000Y-75500000D02*
X148889880Y-75500000D01*
X148889880Y-75500000D02*
X151388860Y-73001020D01*
X136148860Y-76501020D02*
X136148860Y-73001020D01*
%TO.N,/SCK*%
X138688860Y-76501020D02*
X138688860Y-73001020D01*
%TO.N,/LED*%
X135600000Y-84200000D02*
X135600000Y-81700000D01*
X137400000Y-79900000D02*
X139500000Y-79900000D01*
X135600000Y-81700000D02*
X137400000Y-79900000D01*
X139500000Y-79900000D02*
X141228860Y-78171140D01*
X141228860Y-78171140D02*
X141228860Y-73001020D01*
%TO.N,/MISO*%
X136600000Y-101221800D02*
X136400000Y-101021800D01*
X136400000Y-101021800D02*
X136400000Y-81800000D01*
X136400000Y-81800000D02*
X137800000Y-80400000D01*
X137800000Y-80400000D02*
X139869880Y-80400000D01*
X139869880Y-80400000D02*
X143768860Y-76501020D01*
X143768860Y-76501020D02*
X143768860Y-73001020D01*
%TO.N,/MOSI*%
X134000000Y-78649880D02*
X136148860Y-76501020D01*
X134000000Y-101800000D02*
X134000000Y-78649880D01*
%TO.N,/SCK*%
X134800000Y-100500000D02*
X134800000Y-80389880D01*
X134800000Y-80389880D02*
X138688860Y-76501020D01*
%TD*%
%TA.AperFunction,Conductor*%
%TO.N,GND*%
G36*
X122555730Y-71648002D02*
G01*
X122602223Y-71701658D01*
X122612327Y-71771932D01*
X122582833Y-71836512D01*
X122563262Y-71854760D01*
X122484000Y-71914272D01*
X122319462Y-72086451D01*
X122316551Y-72090719D01*
X122316547Y-72090724D01*
X122223150Y-72227639D01*
X122185254Y-72283192D01*
X122084982Y-72499211D01*
X122021337Y-72728705D01*
X122020788Y-72733839D01*
X122020788Y-72733841D01*
X122015309Y-72785109D01*
X121996030Y-72965514D01*
X121996327Y-72970666D01*
X121996327Y-72970670D01*
X122002362Y-73075333D01*
X122009739Y-73203275D01*
X122010876Y-73208321D01*
X122010877Y-73208327D01*
X122043971Y-73355176D01*
X122062097Y-73435605D01*
X122064039Y-73440387D01*
X122064040Y-73440391D01*
X122149753Y-73651477D01*
X122151697Y-73656264D01*
X122276134Y-73859326D01*
X122432064Y-74039337D01*
X122615302Y-74191464D01*
X122619754Y-74194066D01*
X122619759Y-74194069D01*
X122813359Y-74307200D01*
X122820925Y-74311621D01*
X123043412Y-74396580D01*
X123048478Y-74397611D01*
X123048479Y-74397611D01*
X123102816Y-74408666D01*
X123276788Y-74444061D01*
X123410981Y-74448982D01*
X123509620Y-74452599D01*
X123509624Y-74452599D01*
X123514784Y-74452788D01*
X123519904Y-74452132D01*
X123519906Y-74452132D01*
X123745883Y-74423184D01*
X123745884Y-74423184D01*
X123751011Y-74422527D01*
X123834060Y-74397611D01*
X123974176Y-74355574D01*
X123974177Y-74355573D01*
X123979122Y-74354090D01*
X124192993Y-74249315D01*
X124197196Y-74246317D01*
X124197201Y-74246314D01*
X124382676Y-74114016D01*
X124382678Y-74114014D01*
X124386880Y-74111017D01*
X124555576Y-73942909D01*
X124558592Y-73938712D01*
X124558599Y-73938704D01*
X124614148Y-73861399D01*
X124670142Y-73817751D01*
X124740846Y-73811305D01*
X124803810Y-73844108D01*
X124818148Y-73860511D01*
X124819920Y-73862932D01*
X124969032Y-74035072D01*
X124976394Y-74042281D01*
X125151615Y-74187753D01*
X125160047Y-74193658D01*
X125356684Y-74308563D01*
X125365967Y-74313010D01*
X125578721Y-74394253D01*
X125588619Y-74397129D01*
X125717110Y-74423271D01*
X125731159Y-74422075D01*
X125734860Y-74411730D01*
X125734860Y-72873020D01*
X125754862Y-72804899D01*
X125808518Y-72758406D01*
X125860860Y-72747020D01*
X126116860Y-72747020D01*
X126184981Y-72767022D01*
X126231474Y-72820678D01*
X126242860Y-72873020D01*
X126242860Y-74410076D01*
X126246924Y-74423918D01*
X126260338Y-74425952D01*
X126285786Y-74422692D01*
X126295851Y-74420552D01*
X126513988Y-74355108D01*
X126523583Y-74351348D01*
X126728094Y-74251158D01*
X126736944Y-74245883D01*
X126922352Y-74113633D01*
X126930212Y-74106990D01*
X127091533Y-73946232D01*
X127098217Y-73938379D01*
X127153529Y-73861404D01*
X127209523Y-73817756D01*
X127280227Y-73811310D01*
X127343191Y-73844113D01*
X127355301Y-73857966D01*
X127356134Y-73859326D01*
X127512064Y-74039337D01*
X127695302Y-74191464D01*
X127699754Y-74194066D01*
X127699759Y-74194069D01*
X127893359Y-74307200D01*
X127900925Y-74311621D01*
X128123412Y-74396580D01*
X128128478Y-74397611D01*
X128128479Y-74397611D01*
X128182816Y-74408666D01*
X128356788Y-74444061D01*
X128490981Y-74448982D01*
X128589620Y-74452599D01*
X128589624Y-74452599D01*
X128594784Y-74452788D01*
X128599904Y-74452132D01*
X128599906Y-74452132D01*
X128825883Y-74423184D01*
X128825884Y-74423184D01*
X128831011Y-74422527D01*
X128914060Y-74397611D01*
X129054176Y-74355574D01*
X129054177Y-74355573D01*
X129059122Y-74354090D01*
X129272993Y-74249315D01*
X129277196Y-74246317D01*
X129277201Y-74246314D01*
X129462676Y-74114016D01*
X129462678Y-74114014D01*
X129466880Y-74111017D01*
X129635576Y-73942909D01*
X129693839Y-73861827D01*
X129749832Y-73818180D01*
X129820536Y-73811734D01*
X129883500Y-73844536D01*
X129895442Y-73858196D01*
X129896134Y-73859326D01*
X130052064Y-74039337D01*
X130235302Y-74191464D01*
X130239754Y-74194066D01*
X130239759Y-74194069D01*
X130433359Y-74307200D01*
X130440925Y-74311621D01*
X130663412Y-74396580D01*
X130668478Y-74397611D01*
X130668479Y-74397611D01*
X130722816Y-74408666D01*
X130896788Y-74444061D01*
X131030981Y-74448982D01*
X131129620Y-74452599D01*
X131129624Y-74452599D01*
X131134784Y-74452788D01*
X131139904Y-74452132D01*
X131139906Y-74452132D01*
X131365883Y-74423184D01*
X131365884Y-74423184D01*
X131371011Y-74422527D01*
X131454060Y-74397611D01*
X131594176Y-74355574D01*
X131594177Y-74355573D01*
X131599122Y-74354090D01*
X131812993Y-74249315D01*
X131817196Y-74246317D01*
X131817201Y-74246314D01*
X132002676Y-74114016D01*
X132002678Y-74114014D01*
X132006880Y-74111017D01*
X132175576Y-73942909D01*
X132233839Y-73861827D01*
X132289832Y-73818180D01*
X132360536Y-73811734D01*
X132423500Y-73844536D01*
X132435442Y-73858196D01*
X132436134Y-73859326D01*
X132592064Y-74039337D01*
X132775302Y-74191464D01*
X132779754Y-74194066D01*
X132779759Y-74194069D01*
X132973359Y-74307200D01*
X132980925Y-74311621D01*
X133203412Y-74396580D01*
X133208478Y-74397611D01*
X133208479Y-74397611D01*
X133262816Y-74408666D01*
X133436788Y-74444061D01*
X133570981Y-74448982D01*
X133669620Y-74452599D01*
X133669624Y-74452599D01*
X133674784Y-74452788D01*
X133679904Y-74452132D01*
X133679906Y-74452132D01*
X133905883Y-74423184D01*
X133905884Y-74423184D01*
X133911011Y-74422527D01*
X133994060Y-74397611D01*
X134134176Y-74355574D01*
X134134177Y-74355573D01*
X134139122Y-74354090D01*
X134352993Y-74249315D01*
X134357196Y-74246317D01*
X134357201Y-74246314D01*
X134542676Y-74114016D01*
X134542678Y-74114014D01*
X134546880Y-74111017D01*
X134715576Y-73942909D01*
X134773839Y-73861827D01*
X134829832Y-73818180D01*
X134900536Y-73811734D01*
X134963500Y-73844536D01*
X134975442Y-73858196D01*
X134976134Y-73859326D01*
X135132064Y-74039337D01*
X135315302Y-74191464D01*
X135319759Y-74194068D01*
X135319764Y-74194072D01*
X135450930Y-74270719D01*
X135499654Y-74322358D01*
X135513360Y-74379507D01*
X135513360Y-76185598D01*
X135493358Y-76253719D01*
X135476456Y-76274692D01*
X134539561Y-77211586D01*
X133606517Y-78144630D01*
X133598191Y-78152206D01*
X133591697Y-78156327D01*
X133586274Y-78162102D01*
X133544915Y-78206145D01*
X133542160Y-78208987D01*
X133522361Y-78228786D01*
X133519937Y-78231911D01*
X133519929Y-78231920D01*
X133519863Y-78232006D01*
X133512155Y-78241031D01*
X133481783Y-78273374D01*
X133477965Y-78280318D01*
X133477964Y-78280320D01*
X133471978Y-78291209D01*
X133461127Y-78307727D01*
X133448650Y-78323813D01*
X133431024Y-78364546D01*
X133425807Y-78375194D01*
X133404431Y-78414077D01*
X133402460Y-78421752D01*
X133402458Y-78421758D01*
X133399369Y-78433791D01*
X133392966Y-78452493D01*
X133384883Y-78471172D01*
X133383644Y-78478997D01*
X133377940Y-78515007D01*
X133375535Y-78526620D01*
X133364500Y-78569598D01*
X133364500Y-78589945D01*
X133362949Y-78609656D01*
X133359765Y-78629759D01*
X133360511Y-78637651D01*
X133363941Y-78673936D01*
X133364500Y-78685794D01*
X133364500Y-101185031D01*
X133344498Y-101253152D01*
X133332142Y-101269335D01*
X133307409Y-101296803D01*
X133276611Y-101350147D01*
X133244324Y-101406070D01*
X133217923Y-101451797D01*
X133162618Y-101622009D01*
X133143910Y-101800000D01*
X133162618Y-101977991D01*
X133164658Y-101984269D01*
X133164658Y-101984270D01*
X133181463Y-102035990D01*
X133217923Y-102148203D01*
X133307409Y-102303197D01*
X133427164Y-102436199D01*
X133571955Y-102541396D01*
X133577983Y-102544080D01*
X133577985Y-102544081D01*
X133729423Y-102611505D01*
X133735454Y-102614190D01*
X133822984Y-102632795D01*
X133904057Y-102650028D01*
X133904061Y-102650028D01*
X133910514Y-102651400D01*
X134089486Y-102651400D01*
X134095939Y-102650028D01*
X134095943Y-102650028D01*
X134177016Y-102632795D01*
X134264546Y-102614190D01*
X134270577Y-102611505D01*
X134422015Y-102544081D01*
X134422017Y-102544080D01*
X134428045Y-102541396D01*
X134572836Y-102436199D01*
X134692591Y-102303197D01*
X134782077Y-102148203D01*
X134818537Y-102035990D01*
X134835342Y-101984270D01*
X134835342Y-101984269D01*
X134837382Y-101977991D01*
X134856090Y-101800000D01*
X134837382Y-101622009D01*
X134801745Y-101512329D01*
X134799717Y-101441363D01*
X134836380Y-101380565D01*
X134895381Y-101350147D01*
X134900657Y-101349025D01*
X135064546Y-101314190D01*
X135070577Y-101311505D01*
X135222015Y-101244081D01*
X135222017Y-101244080D01*
X135228045Y-101241396D01*
X135255017Y-101221800D01*
X135367492Y-101140082D01*
X135367494Y-101140080D01*
X135372836Y-101136199D01*
X135456024Y-101043809D01*
X135488172Y-101008105D01*
X135488173Y-101008104D01*
X135492591Y-101003197D01*
X135528449Y-100941089D01*
X135579830Y-100892097D01*
X135649543Y-100878660D01*
X135715454Y-100905047D01*
X135756637Y-100962879D01*
X135763505Y-101000129D01*
X135764199Y-101022195D01*
X135762273Y-101043773D01*
X135762618Y-101043809D01*
X135743910Y-101221800D01*
X135762618Y-101399791D01*
X135764658Y-101406069D01*
X135764658Y-101406070D01*
X135777656Y-101446074D01*
X135817923Y-101570003D01*
X135821226Y-101575725D01*
X135821227Y-101575726D01*
X135847949Y-101622009D01*
X135907409Y-101724997D01*
X135911827Y-101729904D01*
X135911828Y-101729905D01*
X135974942Y-101800000D01*
X136027164Y-101857999D01*
X136171955Y-101963196D01*
X136177983Y-101965880D01*
X136177985Y-101965881D01*
X136190442Y-101971427D01*
X136335454Y-102035990D01*
X136422984Y-102054595D01*
X136504057Y-102071828D01*
X136504061Y-102071828D01*
X136510514Y-102073200D01*
X136689486Y-102073200D01*
X136695939Y-102071828D01*
X136695943Y-102071828D01*
X136777016Y-102054595D01*
X136864546Y-102035990D01*
X137009558Y-101971427D01*
X137022015Y-101965881D01*
X137022017Y-101965880D01*
X137028045Y-101963196D01*
X137172836Y-101857999D01*
X137225058Y-101800000D01*
X137288172Y-101729905D01*
X137288173Y-101729904D01*
X137292591Y-101724997D01*
X137352051Y-101622009D01*
X137378773Y-101575726D01*
X137378774Y-101575725D01*
X137382077Y-101570003D01*
X137422344Y-101446074D01*
X137435342Y-101406070D01*
X137435342Y-101406069D01*
X137437382Y-101399791D01*
X137456090Y-101221800D01*
X137437382Y-101043809D01*
X137424187Y-101003197D01*
X137384119Y-100879882D01*
X137382077Y-100873597D01*
X137292591Y-100718603D01*
X137172836Y-100585601D01*
X137087439Y-100523556D01*
X137044085Y-100467333D01*
X137035500Y-100421620D01*
X137035500Y-82115422D01*
X137055502Y-82047301D01*
X137072401Y-82026331D01*
X138026330Y-81072403D01*
X138088640Y-81038379D01*
X138115423Y-81035500D01*
X139790860Y-81035500D01*
X139802094Y-81036030D01*
X139809599Y-81037708D01*
X139877892Y-81035562D01*
X139881849Y-81035500D01*
X139909863Y-81035500D01*
X139913788Y-81035004D01*
X139913789Y-81035004D01*
X139913884Y-81034992D01*
X139925729Y-81034059D01*
X139955550Y-81033122D01*
X139962162Y-81032914D01*
X139962163Y-81032914D01*
X139970085Y-81032665D01*
X139989629Y-81026987D01*
X140008992Y-81022977D01*
X140021320Y-81021420D01*
X140021322Y-81021420D01*
X140029179Y-81020427D01*
X140036543Y-81017511D01*
X140036548Y-81017510D01*
X140070436Y-81004093D01*
X140081665Y-81000248D01*
X140098345Y-80995402D01*
X140124273Y-80987869D01*
X140131100Y-80983831D01*
X140131103Y-80983830D01*
X140141786Y-80977512D01*
X140159544Y-80968812D01*
X140171095Y-80964239D01*
X140171101Y-80964235D01*
X140178468Y-80961319D01*
X140214371Y-80935234D01*
X140224290Y-80928719D01*
X140255648Y-80910174D01*
X140255652Y-80910171D01*
X140262478Y-80906134D01*
X140276862Y-80891750D01*
X140291896Y-80878909D01*
X140301953Y-80871602D01*
X140308367Y-80866942D01*
X140336658Y-80832744D01*
X140344647Y-80823965D01*
X143995187Y-77173425D01*
X144057499Y-77139399D01*
X144084282Y-77136520D01*
X150349840Y-77136520D01*
X150361074Y-77137050D01*
X150368579Y-77138728D01*
X150436872Y-77136582D01*
X150440829Y-77136520D01*
X150468843Y-77136520D01*
X150472768Y-77136024D01*
X150472769Y-77136024D01*
X150472864Y-77136012D01*
X150484709Y-77135079D01*
X150514530Y-77134142D01*
X150521142Y-77133934D01*
X150521143Y-77133934D01*
X150529065Y-77133685D01*
X150548609Y-77128007D01*
X150567972Y-77123997D01*
X150580300Y-77122440D01*
X150580302Y-77122440D01*
X150588159Y-77121447D01*
X150595523Y-77118531D01*
X150595528Y-77118530D01*
X150629416Y-77105113D01*
X150640645Y-77101268D01*
X150657325Y-77096422D01*
X150683253Y-77088889D01*
X150690080Y-77084851D01*
X150690083Y-77084850D01*
X150700766Y-77078532D01*
X150718524Y-77069832D01*
X150730075Y-77065259D01*
X150730081Y-77065255D01*
X150737448Y-77062339D01*
X150773351Y-77036254D01*
X150783270Y-77029739D01*
X150814628Y-77011194D01*
X150814632Y-77011191D01*
X150821458Y-77007154D01*
X150835842Y-76992770D01*
X150850876Y-76979929D01*
X150860933Y-76972622D01*
X150867347Y-76967962D01*
X150895638Y-76933764D01*
X150903627Y-76924985D01*
X153400254Y-74428358D01*
X153462566Y-74394332D01*
X153522945Y-74396402D01*
X153523412Y-74396580D01*
X153528478Y-74397611D01*
X153528479Y-74397611D01*
X153582816Y-74408666D01*
X153756788Y-74444061D01*
X153890981Y-74448982D01*
X153989620Y-74452599D01*
X153989624Y-74452599D01*
X153994784Y-74452788D01*
X153999904Y-74452132D01*
X153999906Y-74452132D01*
X154225883Y-74423184D01*
X154225884Y-74423184D01*
X154231011Y-74422527D01*
X154314060Y-74397611D01*
X154454176Y-74355574D01*
X154454177Y-74355573D01*
X154459122Y-74354090D01*
X154672993Y-74249315D01*
X154677196Y-74246317D01*
X154677201Y-74246314D01*
X154862676Y-74114016D01*
X154862678Y-74114014D01*
X154866880Y-74111017D01*
X155035576Y-73942909D01*
X155093839Y-73861827D01*
X155149832Y-73818180D01*
X155220536Y-73811734D01*
X155283500Y-73844536D01*
X155295442Y-73858196D01*
X155296134Y-73859326D01*
X155452064Y-74039337D01*
X155635302Y-74191464D01*
X155639754Y-74194066D01*
X155639759Y-74194069D01*
X155833359Y-74307200D01*
X155840925Y-74311621D01*
X156063412Y-74396580D01*
X156068478Y-74397611D01*
X156068479Y-74397611D01*
X156122816Y-74408666D01*
X156296788Y-74444061D01*
X156430981Y-74448982D01*
X156529620Y-74452599D01*
X156529624Y-74452599D01*
X156534784Y-74452788D01*
X156539904Y-74452132D01*
X156539906Y-74452132D01*
X156765883Y-74423184D01*
X156765884Y-74423184D01*
X156771011Y-74422527D01*
X156854060Y-74397611D01*
X156994176Y-74355574D01*
X156994177Y-74355573D01*
X156999122Y-74354090D01*
X157212993Y-74249315D01*
X157217196Y-74246317D01*
X157217201Y-74246314D01*
X157402676Y-74114016D01*
X157402678Y-74114014D01*
X157406880Y-74111017D01*
X157575576Y-73942909D01*
X157714550Y-73749506D01*
X157760634Y-73656264D01*
X157817777Y-73540644D01*
X157817778Y-73540642D01*
X157820071Y-73536002D01*
X157889303Y-73308131D01*
X157920389Y-73072012D01*
X157922124Y-73001020D01*
X157902610Y-72763664D01*
X157844591Y-72532683D01*
X157749627Y-72314279D01*
X157732554Y-72287887D01*
X157670225Y-72191542D01*
X157620266Y-72114318D01*
X157459984Y-71938170D01*
X157455933Y-71934971D01*
X157455929Y-71934967D01*
X157351990Y-71852882D01*
X157310927Y-71794965D01*
X157307695Y-71724042D01*
X157343320Y-71662631D01*
X157406491Y-71630228D01*
X157430082Y-71628000D01*
X158116000Y-71628000D01*
X158184121Y-71648002D01*
X158230614Y-71701658D01*
X158242000Y-71754000D01*
X158242000Y-83186000D01*
X158221998Y-83254121D01*
X158168342Y-83300614D01*
X158116000Y-83312000D01*
X138311702Y-83312000D01*
X138310932Y-83311998D01*
X138310078Y-83311993D01*
X138233348Y-83311524D01*
X138224719Y-83313990D01*
X138224714Y-83313991D01*
X138204952Y-83319639D01*
X138188191Y-83323217D01*
X138167848Y-83326130D01*
X138167838Y-83326133D01*
X138158955Y-83327405D01*
X138135605Y-83338021D01*
X138118093Y-83344464D01*
X138105200Y-83348149D01*
X138093435Y-83351512D01*
X138068452Y-83367274D01*
X138053386Y-83375404D01*
X138026490Y-83387633D01*
X138007061Y-83404374D01*
X137992053Y-83415479D01*
X137970369Y-83429160D01*
X137964427Y-83435888D01*
X137950819Y-83451296D01*
X137938627Y-83463340D01*
X137916253Y-83482619D01*
X137911374Y-83490147D01*
X137911371Y-83490150D01*
X137902304Y-83504139D01*
X137891014Y-83519013D01*
X137874044Y-83538228D01*
X137861490Y-83564966D01*
X137853176Y-83579935D01*
X137837107Y-83604727D01*
X137834535Y-83613327D01*
X137829761Y-83629290D01*
X137823099Y-83646736D01*
X137812201Y-83669948D01*
X137810820Y-83678821D01*
X137807658Y-83699128D01*
X137803874Y-83715849D01*
X137797986Y-83735536D01*
X137797985Y-83735539D01*
X137795413Y-83744141D01*
X137795358Y-83753116D01*
X137795358Y-83753117D01*
X137795203Y-83778546D01*
X137795170Y-83779328D01*
X137795000Y-83780423D01*
X137795000Y-83811298D01*
X137794998Y-83812068D01*
X137794524Y-83889652D01*
X137794908Y-83890996D01*
X137795000Y-83892341D01*
X137795000Y-96892298D01*
X137794998Y-96893068D01*
X137794524Y-96970652D01*
X137796990Y-96979281D01*
X137796991Y-96979286D01*
X137802639Y-96999048D01*
X137806217Y-97015809D01*
X137809130Y-97036152D01*
X137809133Y-97036162D01*
X137810405Y-97045045D01*
X137821021Y-97068395D01*
X137827464Y-97085907D01*
X137834512Y-97110565D01*
X137850274Y-97135548D01*
X137858404Y-97150614D01*
X137870633Y-97177510D01*
X137887374Y-97196939D01*
X137898479Y-97211947D01*
X137912160Y-97233631D01*
X137918888Y-97239573D01*
X137934296Y-97253181D01*
X137946340Y-97265373D01*
X137965619Y-97287747D01*
X137973147Y-97292626D01*
X137973150Y-97292629D01*
X137987139Y-97301696D01*
X138002013Y-97312986D01*
X138021228Y-97329956D01*
X138029354Y-97333771D01*
X138029355Y-97333772D01*
X138035021Y-97336432D01*
X138047966Y-97342510D01*
X138062935Y-97350824D01*
X138087727Y-97366893D01*
X138096327Y-97369465D01*
X138112290Y-97374239D01*
X138129736Y-97380901D01*
X138152948Y-97391799D01*
X138182130Y-97396343D01*
X138198849Y-97400126D01*
X138218536Y-97406014D01*
X138218539Y-97406015D01*
X138227141Y-97408587D01*
X138236116Y-97408642D01*
X138236117Y-97408642D01*
X138242810Y-97408683D01*
X138261556Y-97408797D01*
X138262328Y-97408830D01*
X138263423Y-97409000D01*
X138294298Y-97409000D01*
X138295068Y-97409002D01*
X138368716Y-97409452D01*
X138368717Y-97409452D01*
X138372652Y-97409476D01*
X138373996Y-97409092D01*
X138375341Y-97409000D01*
X158116000Y-97409000D01*
X158184121Y-97429002D01*
X158230614Y-97482658D01*
X158242000Y-97535000D01*
X158242000Y-104141000D01*
X158221998Y-104209121D01*
X158168342Y-104255614D01*
X158116000Y-104267000D01*
X121284000Y-104267000D01*
X121215879Y-104246998D01*
X121169386Y-104193342D01*
X121158000Y-104141000D01*
X121158000Y-71754000D01*
X121178002Y-71685879D01*
X121231658Y-71639386D01*
X121284000Y-71628000D01*
X122487609Y-71628000D01*
X122555730Y-71648002D01*
G37*
%TD.AperFunction*%
%TD*%
M02*
