M48
; DRILL file {KiCad 6.0.2+dfsg-1} date Fri 31 Mar 2023 07:08:19 PM PDT
; FORMAT={-:-/ absolute / inch / decimal}
; #@! TF.CreationDate,2023-03-31T19:08:19-07:00
; #@! TF.GenerationSoftware,Kicad,Pcbnew,6.0.2+dfsg-1
; #@! TF.FileFunction,Plated,1,2,PTH
FMAT,2
INCH
; #@! TA.AperFunction,Plated,PTH,ViaDrill
T1C0.0130
; #@! TA.AperFunction,Plated,PTH,ComponentDrill
T2C0.0400
; #@! TA.AperFunction,Plated,PTH,ComponentDrill
T3C0.0511
%
G90
G05
T1
X4.81Y-3.055
X4.81Y-4.065
X4.84Y-3.475
X4.95Y-3.135
X5.03Y-3.425
X5.04Y-3.745
X5.11Y-3.695
X5.13Y-4.065
X5.18Y-3.905
X5.21Y-3.385
X5.2756Y-4.0079
X5.3071Y-3.9567
X5.31Y-2.965
X5.3386Y-3.315
X5.378Y-3.9851
X5.67Y-3.095
X5.82Y-3.075
X5.82Y-4.005
X5.8228Y-2.9724
X5.88Y-3.985
X5.9499Y-3.9849
X6.01Y-3.045
X6.16Y-4.045
X6.17Y-2.985
X6.18Y-3.105
T2
X4.8602Y-2.8741
X4.9602Y-2.8741
X5.0602Y-2.8741
X5.1602Y-2.8741
X5.2602Y-2.8741
X5.3602Y-2.8741
X5.4602Y-2.8741
X5.5602Y-2.8741
X5.6602Y-2.8741
X5.7602Y-2.8741
X5.8602Y-2.8741
X5.9602Y-2.8741
X6.0602Y-2.8741
X6.1602Y-2.8741
T3
X5.3602Y0.007
X5.4602Y0.007
X5.5602Y0.007
X5.6602Y0.007
T0
M30
